<svg width="76" height="69" viewBox="0 0 76 69" fill="none" xmlns="http://www.w3.org/2000/svg">
<path d="M72.3101 9.46097C72.2042 8.79114 71.5973 8.31975 70.9256 8.38611C67.8699 8.68221 65.5849 11.3371 65.7345 14.4171L65.9638 23.8624C63.4502 24.1141 61.25 25.6666 60.1627 27.9578L56.7268 35.2046C56.1928 36.3283 55.4133 37.3167 54.4475 38.0974L53.7334 38.6727C50.102 41.5836 48.0781 46.0665 48.2912 50.7297L46.8874 50.058C46.2512 49.7538 45.4898 50.0254 45.1869 50.6646L41.4196 58.6112C41.1168 59.2504 41.3866 60.0154 42.0234 60.3203L59.3813 68.6256C59.6866 68.7721 60.0374 68.7902 60.3564 68.6763C60.6755 68.563 60.9366 68.3264 61.0817 68.019L64.849 60.0724C65.1519 59.4332 64.8821 58.6682 64.2459 58.3633L63.505 58.009L63.3199 55.5231C63.2458 54.5522 63.5505 53.59 64.1692 52.8406L73.1582 41.9123C73.1762 41.8904 73.1937 41.8672 73.2105 41.8441C75.0636 39.2455 76.0406 36.1192 75.9989 32.9221C75.9977 32.8614 75.992 32.8007 75.9827 32.7412L72.3101 9.46097ZM59.3252 65.7591L44.2722 58.5561L46.9416 52.9245L61.9952 60.1274L59.3252 65.7591ZM71.163 40.3128L62.2021 51.2067C61.1627 52.4669 60.6505 54.0833 60.7752 55.7147L60.8518 56.7395L50.9843 52.0187C50.2833 47.7255 51.9451 43.3866 55.3298 40.6728L56.0439 40.0981C57.3101 39.0752 58.3307 37.78 59.0311 36.3076L62.4669 29.0602C63.3654 27.1709 65.3999 26.1079 67.4549 26.4541L62.4326 37.0482C62.1342 37.6867 62.4052 38.4473 63.0389 38.7509C63.6732 39.0539 64.4316 38.786 64.7369 38.1512L70.3841 26.2382C70.6869 25.599 70.4165 24.834 69.7803 24.5298C69.3759 24.3363 68.9547 24.1817 68.5216 24.0671L68.2848 14.3395C68.2848 14.3282 68.2848 14.317 68.2836 14.3057C68.2188 13.0443 68.8949 11.8605 70.0121 11.2808L73.4473 33.0504C73.4622 35.6522 72.6634 38.1925 71.163 40.3128Z" fill="url(#paint0_linear)"/>
<path d="M30.8133 50.6646C30.5104 50.0255 29.749 49.7538 29.1128 50.058L27.7089 50.7297C27.922 46.0665 25.8982 41.5837 22.2667 38.6727L21.5527 38.0974C20.5862 37.3167 19.8073 36.3283 19.2727 35.2046L15.8375 27.9578C14.7502 25.6666 12.55 24.1135 10.0358 23.8624L10.2657 14.4171C10.4153 11.3371 8.13033 8.68221 5.07462 8.38611C4.40291 8.31975 3.796 8.79114 3.69007 9.46097L0.0174851 32.7412C0.00751537 32.8007 0.00253052 32.8614 0.00128431 32.9221C-0.0404638 36.1192 0.936567 39.2455 2.78968 41.8447C2.80651 41.8679 2.82396 41.8904 2.84203 41.9129L11.831 52.8413C12.4497 53.5906 12.7544 54.5528 12.6802 55.5237L12.4952 58.0096L11.7549 58.364C11.1181 58.6688 10.8483 59.4338 11.1511 60.073L14.9184 68.019C15.0636 68.3264 15.3247 68.563 15.6437 68.6763C15.9628 68.7902 16.3136 68.7721 16.6189 68.6256L33.9768 60.3203C34.6136 60.0154 34.8834 59.2504 34.5806 58.6112L30.8133 50.6646ZM4.83721 40.3128C3.33615 38.1925 2.53733 35.6515 2.55228 33.0498L5.98747 11.2808C7.10532 11.8605 7.78139 13.0437 7.71596 14.3057C7.71596 14.317 7.71596 14.3276 7.71472 14.3389L7.47856 24.0671C7.0455 24.1817 6.62366 24.3363 6.21926 24.5291C5.58307 24.834 5.31264 25.599 5.61609 26.2382L11.2627 38.1506C11.568 38.786 12.3269 39.0539 12.9606 38.7509C13.5943 38.4473 13.8654 37.6867 13.5669 37.0482L8.54532 26.4541C10.6003 26.1086 12.6354 27.1709 13.5333 29.0602L16.9691 36.307C17.6695 37.78 18.6901 39.0752 19.9563 40.0981L20.6703 40.6734C24.0551 43.3866 25.7169 47.7255 25.0159 52.0187L15.149 56.7395L15.2256 55.7147C15.3496 54.0833 14.8381 52.4669 13.7981 51.2067L4.83721 40.3128ZM16.6737 65.7591L14.0043 60.1274L29.058 52.9245L31.728 58.5562L16.6737 65.7591Z" fill="url(#paint1_linear)"/>
<path d="M38 31.7612C37.4954 31.7612 37.0089 31.5771 36.6298 31.2426C35.1979 29.9815 33.8173 28.7965 32.5993 27.7511L32.5931 27.7457C29.0221 24.6807 25.9385 22.0339 23.7929 19.4265C21.3945 16.5117 20.2773 13.748 20.2773 10.7288C20.2773 7.7954 21.276 5.08916 23.0892 3.10824C24.9241 1.1039 27.4418 0 30.1793 0C32.2253 0 34.0991 0.6515 35.7485 1.93625C36.5808 2.58476 37.3353 3.37843 38 4.3042C38.665 3.37843 39.4192 2.58476 40.2519 1.93625C41.9012 0.6515 43.775 0 45.821 0C48.5583 0 51.0762 1.1039 52.9111 3.10824C54.7243 5.08916 55.7227 7.7954 55.7227 10.7288C55.7227 13.748 54.6059 16.5117 52.2074 19.4263C50.0619 22.0339 46.9785 24.6805 43.408 27.7451C42.1879 28.7921 40.8052 29.9791 39.37 31.2431C38.9911 31.5771 38.5044 31.7612 38 31.7612ZM30.1793 2.09123C28.0286 2.09123 26.0528 2.95572 24.6155 4.52564C23.1568 6.11925 22.3534 8.32215 22.3534 10.7288C22.3534 13.2681 23.2904 15.539 25.3914 18.0922C27.422 20.5601 30.4424 23.1525 33.9396 26.1542L33.9461 26.1597C35.1687 27.2091 36.5546 28.3988 37.9971 29.6691C39.4482 28.3964 40.8363 27.2048 42.0613 26.1537C45.5582 23.152 48.5783 20.5601 50.6089 18.0922C52.7096 15.539 53.6467 13.2681 53.6467 10.7288C53.6467 8.32215 52.8432 6.11925 51.3845 4.52564C49.9475 2.95572 47.9715 2.09123 45.821 2.09123C44.2455 2.09123 42.799 2.59565 41.5218 3.59033C40.3836 4.47716 39.5907 5.59822 39.1258 6.38263C38.8868 6.78601 38.466 7.02678 38 7.02678C37.5341 7.02678 37.1133 6.78601 36.8742 6.38263C36.4097 5.59822 35.6168 4.47716 34.4783 3.59033C33.201 2.59565 31.7545 2.09123 30.1793 2.09123Z" fill="url(#paint2_linear)"/>
<defs>
<linearGradient id="paint0_linear" x1="58.6478" y1="8.37988" x2="58.6478" y2="68.7503" gradientUnits="userSpaceOnUse">
<stop stop-color="#62E2C8"/>
<stop offset="1" stop-color="#559AE0"/>
</linearGradient>
<linearGradient id="paint1_linear" x1="17.3524" y1="8.37988" x2="17.3524" y2="68.7503" gradientUnits="userSpaceOnUse">
<stop stop-color="#62E2C8"/>
<stop offset="1" stop-color="#559AE0"/>
</linearGradient>
<linearGradient id="paint2_linear" x1="38" y1="0" x2="38" y2="31.7612" gradientUnits="userSpaceOnUse">
<stop stop-color="#62E2C8"/>
<stop offset="1" stop-color="#559AE0"/>
</linearGradient>
</defs>
</svg>
