<svg width="76" height="69" viewBox="0 0 76 69" fill="none" xmlns="http://www.w3.org/2000/svg">
<path d="M44.9714 40.0645H30.8289C30.2853 40.0645 29.764 40.2569 29.3796 40.5994C28.9952 40.9419 28.7793 41.4064 28.7793 41.8908V66.7292C28.7793 67.2136 28.9952 67.6781 29.3796 68.0206C29.764 68.3631 30.2853 68.5555 30.8289 68.5555H44.9714C45.515 68.5555 46.0364 68.3631 46.4208 68.0206C46.8051 67.6781 47.0211 67.2136 47.0211 66.7292V41.8908C47.0211 41.4064 46.8051 40.9419 46.4208 40.5994C46.0364 40.2569 45.515 40.0645 44.9714 40.0645ZM43.1268 64.7202H32.8786V43.7172H43.1268V64.7202Z" fill="url(#paint0_linear)"/>
<path d="M73.0505 25.0879H58.908C58.3644 25.0879 57.8431 25.2803 57.4587 25.6228C57.0743 25.9653 56.8584 26.4299 56.8584 26.9142V66.5459C56.8584 67.0303 57.0743 67.4948 57.4587 67.8373C57.8431 68.1798 58.3644 68.3723 58.908 68.3723H73.0505C73.5941 68.3723 74.1155 68.1798 74.4999 67.8373C74.8842 67.4948 75.1002 67.0303 75.1002 66.5459V26.9142C75.1002 26.4299 74.8842 25.9653 74.4999 25.6228C74.1155 25.2803 73.5941 25.0879 73.0505 25.0879ZM71.0009 64.7196H60.9577V28.7406H71.0009V64.7196Z" fill="url(#paint1_linear)"/>
<path d="M17.0955 49.3789H2.95296C2.40936 49.3789 1.88803 49.5713 1.50365 49.9138C1.11926 50.2563 0.90332 50.7209 0.90332 51.2053V66.7292C0.90332 67.2136 1.11926 67.6781 1.50365 68.0206C1.88803 68.3631 2.40936 68.5555 2.95296 68.5555H17.0955C17.3646 68.5555 17.6312 68.5083 17.8798 68.4165C18.1285 68.3247 18.3545 68.1902 18.5448 68.0206C18.7351 67.851 18.8861 67.6497 18.9891 67.4281C19.0921 67.2065 19.1451 66.969 19.1451 66.7292V51.2053C19.1451 50.9654 19.0921 50.7279 18.9891 50.5063C18.8861 50.2848 18.7351 50.0834 18.5448 49.9138C18.3545 49.7442 18.1285 49.6097 17.8798 49.5179C17.6312 49.4261 17.3646 49.3789 17.0955 49.3789ZM15.0458 64.7202H5.0026V53.0316H15.0458V64.7202Z" fill="url(#paint2_linear)"/>
<path d="M74.0962 1.24659L54.6488 0.00467437C54.3803 -0.0124742 54.1107 0.0176655 53.8553 0.093371C53.5998 0.169077 53.3637 0.288866 53.1602 0.4459C52.7493 0.763045 52.4967 1.21264 52.4578 1.69579C52.4189 2.17893 52.5971 2.65604 52.953 3.02217C53.3089 3.38829 53.8135 3.61343 54.3557 3.64807L68.3568 4.54298L42.6922 22.4126L23.2321 8.75144C22.8437 8.47878 22.3577 8.34044 21.8638 8.36192C21.3699 8.3834 20.9014 8.56326 20.5446 8.86833L0.63708 25.8905C0.441487 26.0562 0.284568 26.2548 0.175331 26.4748C0.0660938 26.6947 0.00669113 26.9317 0.000533404 27.1722C-0.00562432 27.4126 0.0415847 27.6518 0.139449 27.876C0.237314 28.1002 0.383906 28.3049 0.57081 28.4784C0.757714 28.652 0.981246 28.7909 1.22858 28.8873C1.4759 28.9836 1.74216 29.0355 2.01205 29.0399C2.28193 29.0443 2.55014 29.0012 2.80127 28.913C3.0524 28.8248 3.2815 28.6932 3.47542 28.5259L22.0968 12.6032L41.4194 26.1686C41.7798 26.4216 42.225 26.5595 42.6838 26.5603C43.1426 26.5611 43.5884 26.4247 43.9499 26.173L71.5585 6.94901L70.5132 19.0146C70.4713 19.4976 70.6465 19.9755 71.0001 20.3434C71.3538 20.7112 71.8569 20.9388 72.3989 20.9761C72.4524 20.9798 72.5057 20.9816 72.5587 20.9816C73.0747 20.9811 73.5714 20.8073 73.9499 20.4948C74.3283 20.1823 74.5605 19.7541 74.6002 19.2957L75.9939 3.20883C76.0147 2.96881 75.982 2.72749 75.8978 2.49877C75.8135 2.27004 75.6794 2.05841 75.503 1.87605C75.3266 1.69369 75.1115 1.5442 74.8701 1.43617C74.6287 1.32815 74.3656 1.26372 74.0962 1.24659Z" fill="url(#paint3_linear)"/>
<defs>
<linearGradient id="paint0_linear" x1="37.9002" y1="40.0645" x2="37.9002" y2="68.5555" gradientUnits="userSpaceOnUse">
<stop stop-color="#63E2CD"/>
<stop offset="1" stop-color="#5599E2"/>
</linearGradient>
<linearGradient id="paint1_linear" x1="65.9793" y1="25.0879" x2="65.9793" y2="68.3723" gradientUnits="userSpaceOnUse">
<stop stop-color="#63E2CD"/>
<stop offset="1" stop-color="#5599E2"/>
</linearGradient>
<linearGradient id="paint2_linear" x1="10.0242" y1="49.3789" x2="10.0242" y2="68.5555" gradientUnits="userSpaceOnUse">
<stop stop-color="#63E2CD"/>
<stop offset="1" stop-color="#5599E2"/>
</linearGradient>
<linearGradient id="paint3_linear" x1="38" y1="0" x2="38" y2="29.0402" gradientUnits="userSpaceOnUse">
<stop stop-color="#63E2CD"/>
<stop offset="1" stop-color="#5599E2"/>
</linearGradient>
</defs>
</svg>
