<svg width="31" height="31" viewBox="0 0 31 31" fill="none" xmlns="http://www.w3.org/2000/svg">
<path d="M25.6182 25.2071C25.5482 29.5017 23.2596 31.0555 20.8305 30.9116C18.4014 30.7682 16.7118 29.6419 14.9865 29.6419L14.9159 29.6813C13.1906 29.6813 11.5011 30.8472 9.07195 30.9905C6.64271 31.1339 4.3543 29.6584 4.2843 25.3638C4.42512 21.4209 7.42896 21.131 9.98752 16.4732C12.2404 12.3717 14.916 12.7036 14.916 12.7036H14.9865C14.9865 12.7036 17.6852 12.3895 19.9151 16.4732C22.4614 21.1374 25.4773 21.2641 25.6182 25.2071ZM10.5779 10.9342C12.7295 10.771 14.2884 8.19296 14.0596 5.17577C13.8308 2.15865 11.9011 -0.155029 9.74943 0.00812499C7.5978 0.171279 6.03893 2.74942 6.2677 5.76654C6.49647 8.78366 8.42618 11.0973 10.5779 10.9342ZM18.7329 10.9866C20.8356 11.5598 23.1917 9.63437 23.9954 6.68608C24.799 3.7378 23.7459 0.883076 21.6433 0.309913C19.5407 -0.263251 17.1845 1.66213 16.381 4.61042C15.5773 7.55863 16.6303 10.4134 18.7329 10.9866ZM28.4744 8.62599C26.6434 8.1268 24.5916 9.80341 23.8918 12.3709C23.1919 14.9383 24.109 17.4242 25.94 17.9233C27.771 18.4224 29.8228 16.7458 30.5227 14.1784C31.2226 11.6111 30.3055 9.12511 28.4744 8.62599ZM6.8658 12.3707C6.16592 9.80334 4.11422 8.12666 2.28315 8.62578C0.45208 9.1249 -0.464998 11.6108 0.234882 14.1782C0.934762 16.7456 2.98652 18.4222 4.8176 17.9231C6.6486 17.4241 7.56561 14.9381 6.8658 12.3707Z" fill="#8482F1"/>
</svg>
