<svg width="177" height="187" viewBox="0 0 177 187" fill="none" xmlns="http://www.w3.org/2000/svg">
<path d="M151.117 37.3961C147.337 39.9078 144.614 38.8469 143.284 36.6466C141.954 34.4466 141.922 32.3014 140.889 30.7999L140.812 30.762C139.778 29.2605 137.752 28.4885 136.172 26.4603C134.592 24.432 134.505 21.5564 138.201 18.9229C141.716 16.6834 143.768 19.124 149.355 18.5605C154.274 18.0642 155.588 20.5917 155.588 20.5917L155.63 20.6531C155.63 20.6531 157.52 22.8136 155.302 27.2006C152.768 32.2107 154.464 34.9115 151.117 37.3961ZM154.529 15.7562C155.96 17.531 159.138 17.3433 161.626 15.3368C164.115 13.3303 164.973 10.2648 163.542 8.48991C162.111 6.71506 158.933 6.90279 156.444 8.9093C153.956 10.9158 153.098 13.9813 154.529 15.7562ZM159.369 22.885C160.129 25.0583 163.217 25.9555 166.264 24.8888C169.311 23.822 171.165 21.1954 170.404 19.0221C169.643 16.8488 166.556 15.9516 163.509 17.0184C160.462 18.0851 158.608 20.7117 159.369 22.885ZM167.259 29.949C166.596 28.0564 163.908 27.2751 161.254 28.204C158.601 29.133 156.986 31.4203 157.649 33.3128C158.311 35.2054 161 35.9867 163.653 35.0578C166.307 34.129 167.921 31.8417 167.259 29.949ZM151.055 13.386C152.87 11.239 153.1 8.44893 151.569 7.15432C150.038 5.85972 147.325 6.55078 145.51 8.69789C143.695 10.8449 143.464 13.635 144.996 14.9296C146.527 16.2242 149.24 15.5331 151.055 13.386Z" fill="#E4F1FF"/>
<path d="M80.115 38.318C76.3355 40.8297 73.6122 39.7688 72.2824 37.5685C70.9519 35.3685 70.9201 33.2233 69.8865 31.7218L69.8099 31.6839C68.7764 30.1824 66.7496 29.4104 65.1697 27.3822C63.5897 25.3538 63.5029 22.4783 67.1986 19.8447C70.7145 17.6053 72.7663 20.0459 78.3527 19.4824C83.2719 18.9861 84.5859 21.5135 84.5859 21.5135L84.6281 21.5749C84.6281 21.5749 86.5181 23.7355 84.2998 28.1225C81.7659 33.1326 83.4624 35.8334 80.115 38.318ZM83.5271 16.678C84.958 18.4529 88.1356 18.2652 90.6244 16.2587C93.1132 14.2522 93.9708 11.1866 92.5399 9.41179C91.1089 7.63694 87.9313 7.82467 85.4425 9.83117C82.9537 11.8377 82.0961 14.9031 83.5271 16.678ZM88.3667 23.8069C89.1275 25.9802 92.2146 26.8774 95.262 25.8107C98.3093 24.7438 100.163 22.1173 99.4023 19.944C98.6415 17.7707 95.5544 16.8735 92.507 17.9403C89.4598 19.007 87.606 21.6336 88.3667 23.8069ZM96.2568 30.8709C95.5944 28.9783 92.9061 28.1969 90.2524 29.1259C87.5987 30.0549 85.9845 32.3422 86.647 34.2347C87.3095 36.1273 89.9978 36.9086 92.6515 35.9797C95.3052 35.0508 96.9194 32.7636 96.2568 30.8709ZM80.0532 14.3079C81.8683 12.1608 82.0984 9.37081 80.5671 8.0762C79.0358 6.78159 76.3229 7.47265 74.5078 9.61976C72.6927 11.7668 72.4625 14.5569 73.9938 15.8515C75.525 17.1461 78.2379 16.455 80.0532 14.3079Z" fill="#E4F1FF"/>
<path d="M110.53 103.87C106.751 106.381 104.027 105.321 102.697 103.12C101.367 100.92 101.335 98.7751 100.302 97.2735L100.225 97.2357C99.1914 95.7342 97.1647 94.9622 95.5847 92.9339C94.0047 90.9056 93.918 88.0301 97.6136 85.3965C101.13 83.1571 103.181 85.5977 108.768 85.0342C113.687 84.5378 115.001 87.0653 115.001 87.0653L115.043 87.1267C115.043 87.1267 116.933 89.2872 114.715 93.6742C112.181 98.6844 113.877 101.385 110.53 103.87ZM113.942 82.2298C115.373 84.0047 118.551 83.817 121.039 81.8104C123.528 79.8039 124.386 76.7384 122.955 74.9635C121.524 73.1887 118.346 73.3764 115.858 75.3829C113.369 77.3894 112.511 80.4549 113.942 82.2298ZM118.782 89.3586C119.543 91.532 122.63 92.4292 125.677 91.3624C128.724 90.2956 130.578 87.669 129.817 85.4958C129.057 83.3224 125.969 82.4252 122.922 83.4921C119.875 84.5588 118.021 87.1853 118.782 89.3586ZM126.672 96.4226C126.009 94.5301 123.321 93.7487 120.667 94.6777C118.014 95.6067 116.4 97.8939 117.062 99.7865C117.725 101.679 120.413 102.46 123.067 101.531C125.72 100.603 127.334 98.3153 126.672 96.4226ZM110.468 79.8597C112.283 77.7126 112.513 74.9226 110.982 73.628C109.451 72.3334 106.738 73.0244 104.923 75.1715C103.108 77.3186 102.878 80.1087 104.409 81.4033C105.94 82.6979 108.653 82.0067 110.468 79.8597Z" fill="#E4F1FF"/>
<path d="M36.7195 98.3971C32.94 100.909 30.2167 99.8479 28.8868 97.6476C27.5564 95.4476 27.5245 93.3024 26.491 91.8009L26.4144 91.763C25.3808 90.2615 23.3541 89.4895 21.7741 87.4613C20.1941 85.4329 20.1074 82.5574 23.8031 79.9238C27.319 77.6844 29.3708 80.125 34.9572 79.5615C39.8764 79.0652 41.1903 81.5926 41.1903 81.5926L41.2326 81.654C41.2326 81.654 43.1226 83.8146 40.9043 88.2016C38.3704 93.2117 40.0668 95.9125 36.7195 98.3971ZM40.1315 76.7571C41.5625 78.532 44.74 78.3443 47.2289 76.3378C49.7177 74.3313 50.5753 71.2657 49.1444 69.4909C47.7134 67.716 44.5358 67.9038 42.047 69.9103C39.5582 71.9168 38.7006 74.9822 40.1315 76.7571ZM44.9712 83.886C45.732 86.0593 48.8191 86.9565 51.8665 85.8898C54.9138 84.823 56.7675 82.1964 56.0068 80.0231C55.246 77.8498 52.1589 76.9526 49.1115 78.0194C46.0642 79.0861 44.2105 81.7127 44.9712 83.886ZM52.8613 90.95C52.1989 89.0574 49.5106 88.276 46.8569 89.205C44.2032 90.134 42.589 92.4213 43.2515 94.3138C43.914 96.2064 46.6023 96.9877 49.256 96.0588C51.9097 95.1299 53.5239 92.8427 52.8613 90.95ZM36.6577 74.387C38.4728 72.2399 38.7029 69.4499 37.1716 68.1553C35.6403 66.8607 32.9274 67.5518 31.1123 69.6989C29.2971 71.8459 29.067 74.636 30.5983 75.9306C32.1295 77.2252 34.8424 76.5341 36.6577 74.387Z" fill="#E4F1FF"/>
<path d="M76.6469 163.455C73.8415 167.022 70.923 166.865 68.9722 165.191C67.0209 163.517 66.3203 161.489 64.8694 160.386L64.7847 160.374C63.3338 159.27 61.1673 159.17 59.0326 157.737C56.8979 156.304 55.917 153.6 58.6047 149.943C61.2447 146.717 63.9564 148.395 69.087 146.114C73.6048 144.105 75.6427 146.095 75.6427 146.095L75.702 146.14C75.702 146.14 78.1725 147.602 77.4362 152.463C76.5947 158.014 79.0501 160.049 76.6469 163.455ZM73.1259 141.833C75.0398 143.072 77.9996 141.9 79.7368 139.217C81.474 136.533 81.3307 133.353 79.4168 132.114C77.5029 130.875 74.5431 132.046 72.8059 134.73C71.0688 137.414 71.212 140.594 73.1259 141.833ZM79.9509 147.092C81.3527 148.919 84.5656 148.807 87.127 146.841C89.6883 144.875 90.6284 141.801 89.2267 139.974C87.8249 138.148 84.612 138.26 82.0506 140.226C79.4893 142.191 78.5491 145.266 79.9509 147.092ZM89.6532 151.337C88.4326 149.746 85.6347 149.844 83.4042 151.556C81.1737 153.267 80.3551 155.945 81.5758 157.535C82.7965 159.126 85.5943 159.028 87.8249 157.317C90.0554 155.605 90.874 152.928 89.6532 151.337ZM69.0854 140.667C70.1386 138.06 69.4854 135.338 67.6263 134.587C65.7671 133.835 63.406 135.34 62.3527 137.946C61.2994 140.553 61.9526 143.275 63.8118 144.027C65.6708 144.778 68.0319 143.274 69.0854 140.667Z" fill="#E4F1FF"/>
<path d="M27.4113 179.637C27.0388 184.16 24.5181 185.639 21.9672 185.319C19.4162 184.999 17.7132 183.694 15.8944 183.574L15.8171 183.61C13.9982 183.49 12.136 184.602 9.56506 184.584C6.99403 184.566 4.68405 182.852 4.90887 178.319C5.3315 174.172 8.5185 174.075 11.5398 169.343C14.2001 165.175 16.9978 165.711 16.9978 165.711L17.0722 165.716C17.0722 165.716 19.9391 165.573 22.006 170.033C24.3662 175.127 27.537 175.471 27.4113 179.637ZM12.5473 163.544C14.827 163.522 16.6498 160.912 16.6184 157.716C16.587 154.519 14.7134 151.945 12.4336 151.968C10.1539 151.99 8.33119 154.6 8.36259 157.797C8.39398 160.993 10.2675 163.567 12.5473 163.544ZM21.1412 164.167C23.3181 164.917 25.936 163.051 26.9883 159.999C28.0405 156.946 27.1288 153.863 24.952 153.113C22.7751 152.362 20.1572 154.228 19.105 157.281C18.0527 160.333 18.9643 163.416 21.1412 164.167ZM31.5754 162.355C29.6798 161.702 27.4 163.327 26.4837 165.985C25.5674 168.643 26.3613 171.327 28.257 171.981C30.1527 172.634 32.4324 171.009 33.3488 168.351C34.2651 165.693 33.4712 163.009 31.5754 162.355ZM8.53392 164.801C7.97458 162.045 5.92815 160.135 3.96301 160.534C1.99788 160.933 0.858176 163.49 1.41751 166.245C1.97685 169 4.02336 170.911 5.98849 170.512C7.95355 170.113 9.09318 167.556 8.53392 164.801Z" fill="#E4F1FF"/>
</svg>
