<svg width="197" height="209" viewBox="0 0 197 209" fill="none" xmlns="http://www.w3.org/2000/svg">
<path d="M27.9742 41.8169C32.2006 44.6255 35.2458 43.4392 36.7329 40.9788C38.2206 38.5187 38.2562 36.1199 39.4119 34.4409L39.4976 34.3986C40.6533 32.7196 42.9196 31.8563 44.6864 29.5883C46.4532 27.3202 46.5501 24.1047 42.4176 21.1598C38.486 18.6557 36.1917 21.3848 29.9449 20.7547C24.4442 20.1997 22.9749 23.0259 22.9749 23.0259L22.9276 23.0946C22.9276 23.0946 20.8142 25.5105 23.2947 30.4161C26.1282 36.0185 24.2312 39.0385 27.9742 41.8169ZM24.1589 17.6188C22.5588 19.6034 19.0056 19.3936 16.2225 17.1498C13.4395 14.9061 12.4805 11.4782 14.0806 9.49355C15.6807 7.50888 19.234 7.7188 22.017 9.96251C24.8 12.2062 25.759 15.6341 24.1589 17.6188ZM18.7471 25.5904C17.8964 28.0206 14.4443 29.0238 11.0367 27.831C7.62913 26.6381 5.55633 23.701 6.40698 21.2708C7.25767 18.8406 10.7098 17.8373 14.1173 19.0302C17.5248 20.223 19.5978 23.1601 18.7471 25.5904ZM9.92426 33.4894C10.665 31.3731 13.6711 30.4994 16.6385 31.5382C19.6059 32.577 21.4109 35.1346 20.6701 37.2509C19.9293 39.3672 16.9232 40.2409 13.9557 39.2022C10.9884 38.1635 9.18338 35.6058 9.92426 33.4894ZM28.0434 14.9685C26.0137 12.5676 25.7564 9.44772 27.4687 8.00007C29.181 6.55242 32.2146 7.32518 34.2444 9.7261C36.2741 12.127 36.5314 15.2469 34.8191 16.6945C33.1069 18.1422 30.0733 17.3694 28.0434 14.9685Z" fill="#E4F1FF"/>
<path d="M107.371 42.8472C111.598 45.6558 114.643 44.4695 116.13 42.009C117.618 39.549 117.653 37.1502 118.809 35.4712L118.895 35.4288C120.05 33.7498 122.317 32.8866 124.083 30.6186C125.85 28.3505 125.947 25.135 121.815 22.1901C117.883 19.6859 115.589 22.415 109.342 21.7849C103.841 21.2299 102.372 24.0562 102.372 24.0562L102.325 24.1248C102.325 24.1248 100.211 26.5408 102.692 31.4464C105.525 37.0488 103.628 40.0688 107.371 42.8472ZM103.556 18.6491C101.956 20.6337 98.4026 20.4238 95.6195 18.1801C92.8365 15.9364 91.8775 12.5085 93.4776 10.5238C95.0777 8.53916 98.6309 8.74908 101.414 10.9928C104.197 13.2365 105.156 16.6643 103.556 18.6491ZM98.144 26.6206C97.2933 29.0509 93.8413 30.0541 90.4337 28.8613C87.0261 27.6684 84.9533 24.7313 85.8039 22.3011C86.6546 19.8709 90.1067 18.8676 93.5143 20.0605C96.9218 21.2533 98.9947 24.1904 98.144 26.6206ZM89.3212 34.5197C90.0619 32.4034 93.0681 31.5297 96.0355 32.5685C99.0029 33.6073 100.808 36.1649 100.067 38.2812C99.3263 40.3975 96.3202 41.2712 93.3527 40.2324C90.3854 39.1938 88.5804 36.6361 89.3212 34.5197ZM107.44 15.9987C105.411 13.5978 105.153 10.478 106.866 9.03035C108.578 7.5827 111.612 8.35545 113.641 10.7564C115.671 13.1573 115.928 16.2772 114.216 17.7248C112.504 19.1724 109.47 18.3996 107.44 15.9987Z" fill="#E4F1FF"/>
<path d="M73.3585 116.149C77.5848 118.958 80.6301 117.771 82.1171 115.311C83.6048 112.851 83.6405 110.452 84.7962 108.773L84.8819 108.731C86.0376 107.052 88.3039 106.188 90.0707 103.92C91.8374 101.652 91.9344 98.4367 87.8019 95.4919C83.8703 92.9877 81.576 95.7168 75.3292 95.0867C69.8285 94.5317 68.3592 97.3579 68.3592 97.3579L68.3119 97.4266C68.3119 97.4266 66.1985 99.8425 68.679 104.748C71.5125 110.351 69.6155 113.371 73.3585 116.149ZM69.5431 91.9508C67.9431 93.9355 64.3899 93.7256 61.6068 91.4819C58.8238 89.2381 57.8648 85.8102 59.4649 83.8256C61.065 81.8409 64.6182 82.0508 67.4012 84.2945C70.1842 86.5382 71.1433 89.9661 69.5431 91.9508ZM64.1313 99.9224C63.2806 102.353 59.8286 103.356 56.421 102.163C53.0134 100.97 50.9406 98.033 51.7913 95.6028C52.642 93.1726 56.094 92.1694 59.5016 93.3623C62.9091 94.5551 64.982 97.4922 64.1313 99.9224ZM55.3085 107.821C56.0492 105.705 59.0554 104.831 62.0228 105.87C64.9902 106.909 66.7952 109.467 66.0544 111.583C65.3136 113.699 62.3075 114.573 59.34 113.534C56.3727 112.496 54.5677 109.938 55.3085 107.821ZM73.4277 89.3005C71.398 86.8996 71.1406 83.7798 72.853 82.3321C74.5653 80.8845 77.5989 81.6572 79.6287 84.0581C81.6583 86.459 81.9157 89.5789 80.2033 91.0266C78.4911 92.4742 75.4576 91.7014 73.4277 89.3005Z" fill="#E4F1FF"/>
<path d="M155.897 110.029C160.123 112.837 163.168 111.651 164.655 109.191C166.143 106.731 166.179 104.332 167.334 102.653L167.42 102.61C168.576 100.931 170.842 100.068 172.609 97.8002C174.376 95.5321 174.472 92.3166 170.34 89.3717C166.408 86.8676 164.114 89.5967 157.867 88.9666C152.367 88.4116 150.897 91.2378 150.897 91.2378L150.85 91.3065C150.85 91.3065 148.737 93.7224 151.217 98.628C154.051 104.23 152.154 107.25 155.897 110.029ZM152.081 85.8307C150.481 87.8154 146.928 87.6055 144.145 85.3617C141.362 83.118 140.403 79.6901 142.003 77.7055C143.603 75.7208 147.156 75.9307 149.939 78.1744C152.722 80.4181 153.681 83.846 152.081 85.8307ZM146.669 93.8023C145.819 96.2325 142.367 97.2358 138.959 96.0429C135.551 94.85 133.479 91.9129 134.329 89.4827C135.18 87.0525 138.632 86.0492 142.04 87.2422C145.447 88.435 147.52 91.372 146.669 93.8023ZM137.847 101.701C138.587 99.585 141.593 98.7113 144.561 99.7501C147.528 100.789 149.333 103.347 148.592 105.463C147.852 107.579 144.846 108.453 141.878 107.414C138.911 106.375 137.106 103.818 137.847 101.701ZM155.966 83.1804C153.936 80.7795 153.679 77.6596 155.391 76.212C157.103 74.7643 160.137 75.5371 162.167 77.938C164.196 80.3389 164.454 83.4588 162.741 84.9065C161.029 86.3541 157.996 85.5813 155.966 83.1804Z" fill="#E4F1FF"/>
<path d="M111.25 182.778C114.387 186.767 117.65 186.591 119.831 184.719C122.013 182.847 122.797 180.579 124.419 179.345L124.514 179.332C126.136 178.098 128.559 177.986 130.946 176.384C133.333 174.782 134.43 171.757 131.425 167.669C128.472 164.061 125.44 165.937 119.703 163.386C114.651 161.14 112.372 163.366 112.372 163.366L112.306 163.416C112.306 163.416 109.543 165.051 110.367 170.486C111.308 176.693 108.562 178.969 111.25 182.778ZM115.187 158.599C113.047 159.985 109.737 158.675 107.794 155.674C105.852 152.673 106.012 149.117 108.152 147.732C110.292 146.347 113.602 147.656 115.545 150.657C117.487 153.658 117.327 157.214 115.187 158.599ZM107.555 164.481C105.987 166.523 102.395 166.398 99.5305 164.2C96.6663 162.002 95.6151 158.564 97.1826 156.521C98.7501 154.479 102.343 154.604 105.207 156.802C108.071 159 109.122 162.438 107.555 164.481ZM96.7056 169.227C98.0705 167.448 101.199 167.558 103.693 169.472C106.188 171.386 107.103 174.379 105.738 176.158C104.373 177.937 101.244 177.828 98.7501 175.914C96.2559 174 95.3405 171.006 96.7056 169.227ZM119.705 157.296C118.527 154.381 119.258 151.337 121.336 150.497C123.415 149.657 126.056 151.339 127.233 154.254C128.411 157.168 127.681 160.213 125.602 161.053C123.523 161.893 120.883 160.211 119.705 157.296Z" fill="#E4F1FF"/>
<path d="M166.304 200.873C166.72 205.931 169.539 207.585 172.392 207.226C175.244 206.868 177.148 205.409 179.182 205.275L179.269 205.316C181.302 205.182 183.385 206.425 186.26 206.405C189.135 206.385 191.718 204.468 191.466 199.399C190.994 194.762 187.43 194.654 184.052 189.362C181.077 184.702 177.948 185.301 177.948 185.301L177.865 185.306C177.865 185.306 174.659 185.146 172.348 190.134C169.709 195.83 166.163 196.214 166.304 200.873ZM182.925 182.878C180.376 182.853 178.338 179.935 178.373 176.36C178.408 172.785 180.503 169.908 183.052 169.933C185.601 169.958 187.639 172.876 187.604 176.451C187.569 180.025 185.474 182.903 182.925 182.878ZM173.315 183.574C170.881 184.413 167.953 182.326 166.777 178.913C165.6 175.5 166.62 172.052 169.054 171.213C171.488 170.374 174.415 172.461 175.592 175.874C176.769 179.287 175.749 182.734 173.315 183.574ZM161.647 181.548C163.767 180.817 166.316 182.634 167.341 185.607C168.366 188.579 167.478 191.581 165.358 192.312C163.238 193.042 160.689 191.225 159.664 188.253C158.64 185.281 159.527 182.279 161.647 181.548ZM187.413 184.283C188.038 181.202 190.327 179.065 192.524 179.511C194.721 179.957 195.996 182.817 195.37 185.898C194.745 188.979 192.457 191.115 190.259 190.669C188.062 190.223 186.787 187.364 187.413 184.283Z" fill="#E4F1FF"/>
</svg>
