<svg width="168" height="183" viewBox="0 0 168 183" fill="none" xmlns="http://www.w3.org/2000/svg">
<path d="M170.018 61.057C166.944 68.3246 161.976 69.397 157.938 67.4805C153.898 65.565 151.795 62.4839 148.856 61.2968L148.708 61.3154C145.769 60.1284 142.089 60.952 137.853 59.5249C133.616 58.0978 130.733 54.0098 133.568 46.6459C136.521 40.0261 141.837 41.5989 149.4 35.4248C156.06 29.9879 160.39 32.3942 160.39 32.3942L160.51 32.4427C160.51 32.4427 165.323 33.7644 166.312 42.2551C167.441 51.9523 172.491 54.2432 170.018 61.057ZM154.217 26.3953C157.995 27.5977 162.424 24.2785 164.11 18.9814C165.796 13.6843 164.101 8.41527 160.323 7.21284C156.546 6.01041 152.116 9.32971 150.43 14.6267C148.744 19.9238 150.439 25.1928 154.217 26.3953ZM168.073 32.0954C171.261 34.5184 176.599 32.8596 179.996 28.3902C183.394 23.9207 183.564 18.3332 180.377 15.9102C177.189 13.4871 171.851 15.1459 168.453 19.6154C165.056 24.0847 164.886 29.6723 168.073 32.0954ZM186.292 34.7764C183.516 32.6663 178.867 34.1107 175.909 38.0028C172.95 41.895 172.802 46.7606 175.578 48.8706C178.353 50.9806 183.002 49.5362 185.961 45.6441C188.919 41.7522 189.068 36.8865 186.292 34.7764ZM146.905 26.2883C147.479 21.4334 145.138 17.1656 141.675 16.756C138.213 16.3464 134.94 19.9502 134.366 24.8053C133.792 29.6602 136.133 33.9281 139.596 34.3376C143.058 34.7473 146.331 31.1434 146.905 26.2883Z" fill="#86ABD1"/>
<path d="M133.978 137.505C130.59 144.631 125.58 145.486 121.629 143.395C117.677 141.305 115.71 138.135 112.826 136.82L112.678 136.833C109.793 135.518 106.081 136.181 101.91 134.57C97.74 132.959 95.0381 128.749 98.1924 121.516C101.431 115.032 106.674 116.835 114.499 110.997C121.39 105.856 125.61 108.449 125.61 108.449L125.728 108.503C125.728 108.503 130.479 110.033 131.097 118.559C131.801 128.296 136.746 130.805 133.978 137.505ZM119.706 102.186C123.427 103.552 127.997 100.43 129.913 95.2112C131.829 89.9929 130.365 84.6548 126.643 83.2886C122.922 81.9224 118.352 85.0452 116.436 90.2636C114.52 95.482 115.984 100.82 119.706 102.186ZM133.3 108.486C136.378 111.046 141.784 109.621 145.373 105.305C148.963 100.988 149.377 95.4129 146.298 92.8531C143.219 90.2932 137.814 91.7174 134.224 96.0343C130.635 100.351 130.221 105.926 133.3 108.486ZM151.384 111.96C148.703 109.73 143.995 110.97 140.87 114.73C137.744 118.489 137.384 123.343 140.065 125.573C142.746 127.802 147.453 126.562 150.579 122.802C153.704 119.043 154.065 114.189 151.384 111.96ZM112.405 101.76C113.191 96.9349 111.038 92.569 107.597 92.0086C104.155 91.4483 100.728 94.9058 99.9428 99.7312C99.1573 104.556 101.31 108.922 104.752 109.483C108.193 110.043 111.62 106.586 112.405 101.76Z" fill="#86ABD1"/>
<path d="M47.242 168.656C43.8537 175.783 38.844 176.637 34.8927 174.546C30.9407 172.456 28.974 169.286 26.0897 167.972L25.9414 167.984C23.0571 166.67 19.3445 167.332 15.1742 165.721C11.0037 164.111 8.30179 159.901 11.456 152.667C14.6949 146.183 19.9377 147.986 27.7631 142.148C34.6537 137.007 38.8741 139.6 38.8741 139.6L38.992 139.654C38.992 139.654 43.7431 141.184 44.3603 149.71C45.0645 159.448 50.0101 161.957 47.242 168.656ZM32.9693 133.338C36.6907 134.704 41.2607 131.581 43.1765 126.363C45.0923 121.144 43.6284 115.806 39.907 114.44C36.1855 113.074 31.6155 116.197 29.6998 121.415C27.784 126.633 29.2477 131.971 32.9693 133.338ZM46.5633 139.637C49.642 142.197 55.0477 140.773 58.637 136.456C62.2263 132.139 62.6403 126.564 59.5617 124.004C56.483 121.445 51.0773 122.869 47.4881 127.186C43.8988 131.502 43.4846 137.077 46.5633 139.637ZM64.6475 143.111C61.9666 140.882 57.2592 142.122 54.1335 145.881C51.0078 149.64 50.6474 154.495 53.3283 156.724C56.0093 158.953 60.7167 157.713 63.8424 153.954C66.9681 150.195 67.3286 145.34 64.6475 143.111ZM25.6691 132.912C26.4547 128.086 24.3017 123.72 20.8603 123.16C17.4189 122.6 13.9921 126.057 13.2065 130.883C12.421 135.708 14.574 140.074 18.0154 140.634C21.4567 141.195 24.8834 137.737 25.6691 132.912Z" fill="#86ABD1"/>
<path d="M80.23 70.6857C76.8328 77.8079 71.822 78.6562 67.8732 76.5602C63.9239 74.4652 61.9612 71.2927 59.0785 69.9749L58.9303 69.9868C56.0476 68.669 52.3342 69.3265 48.1658 67.7106C43.9974 66.0946 41.3008 61.8813 44.4641 54.6522C47.7111 48.1717 52.9516 49.9816 60.7844 44.1534C67.6815 39.021 71.8986 41.6194 71.8986 41.6194L72.0164 41.6732C72.0164 41.6732 76.7655 43.2097 77.3721 51.7363C78.064 61.4745 83.0065 63.9899 80.23 70.6857ZM66.0016 35.3493C69.7214 36.7202 74.2952 33.6033 76.2176 28.3872C78.1399 23.1712 76.6828 17.8313 72.963 16.4605C69.2433 15.0896 64.6694 18.2066 62.7471 23.4226C60.8248 28.6386 62.2818 33.9784 66.0016 35.3493ZM79.5877 41.6659C82.6632 44.2297 88.0706 42.8123 91.6654 38.4999C95.2601 34.1875 95.6811 28.6133 92.6058 26.0496C89.5303 23.4859 84.1228 24.9032 80.5281 29.2156C76.9334 33.5279 76.5122 39.1022 79.5877 41.6659ZM97.6675 45.1625C94.9895 42.9298 90.2805 44.164 87.1501 47.9193C84.0197 51.6747 83.6531 56.5287 86.3312 58.7612C89.0095 60.9938 93.7184 59.7596 96.8489 56.0043C99.9793 52.2492 100.346 47.3951 97.6675 45.1625ZM58.702 34.9141C59.4936 30.0898 57.3462 25.7212 53.9054 25.1565C50.4647 24.5919 47.0336 28.0451 46.2419 32.8694C45.4504 37.6937 47.5979 42.0624 51.0386 42.627C54.4792 43.1918 57.9102 39.7385 58.702 34.9141Z" fill="#86ABD1"/>
</svg>
