<svg width="177" height="187" viewBox="0 0 177 187" fill="none" xmlns="http://www.w3.org/2000/svg">
<path d="M25.0173 37.3961C28.7968 39.9078 31.5201 38.8469 32.85 36.6466C34.1804 34.4466 34.2123 32.3014 35.2458 30.7999L35.3225 30.762C36.356 29.2605 38.3827 28.4885 39.9627 26.4603C41.5427 24.432 41.6294 21.5564 37.9337 18.9229C34.4178 16.6834 32.366 19.124 26.7796 18.5605C21.8604 18.0642 20.5465 20.5917 20.5465 20.5917L20.5042 20.6531C20.5042 20.6531 18.6142 22.8136 20.8325 27.2006C23.3664 32.2107 21.67 34.9115 25.0173 37.3961ZM21.6053 15.7562C20.1743 17.531 16.9968 17.3433 14.5079 15.3368C12.0191 13.3303 11.1615 10.2648 12.5925 8.48991C14.0234 6.71506 17.201 6.90279 19.6898 8.9093C22.1786 10.9158 23.0362 13.9813 21.6053 15.7562ZM16.7656 22.885C16.0048 25.0583 12.9177 25.9555 9.87033 24.8888C6.82302 23.822 4.96934 21.1954 5.73006 19.0221C6.49083 16.8488 9.57797 15.9516 12.6253 17.0184C15.6726 18.0851 17.5263 20.7117 16.7656 22.885ZM8.8755 29.949C9.53792 28.0564 12.2262 27.2751 14.8799 28.204C17.5337 29.133 19.1478 31.4203 18.4853 33.3128C17.8228 35.2054 15.1345 35.9867 12.4808 35.0578C9.82717 34.129 8.21295 31.8417 8.8755 29.949ZM25.0792 13.386C23.2641 11.239 23.0339 8.44893 24.5652 7.15432C26.0965 5.85972 28.8094 6.55078 30.6246 8.69789C32.4397 10.8449 32.6698 13.635 31.1385 14.9296C29.6073 16.2242 26.8944 15.5331 25.0792 13.386Z" fill="#E4F1FF"/>
<path d="M96.0192 38.318C99.7988 40.8297 102.522 39.7688 103.852 37.5685C105.182 35.3685 105.214 33.2233 106.248 31.7218L106.324 31.6839C107.358 30.1824 109.385 29.4104 110.965 27.3822C112.545 25.3538 112.631 22.4783 108.936 19.8447C105.42 17.6053 103.368 20.0459 97.7816 19.4824C92.8624 18.9861 91.5484 21.5135 91.5484 21.5135L91.5062 21.5749C91.5062 21.5749 89.6161 23.7355 91.8344 28.1225C94.3684 33.1326 92.6719 35.8334 96.0192 38.318ZM92.6072 16.678C91.1763 18.4529 87.9987 18.2652 85.5099 16.2587C83.0211 14.2522 82.1635 11.1866 83.5944 9.41179C85.0253 7.63694 88.203 7.82467 90.6918 9.83117C93.1806 11.8377 94.0382 14.9031 92.6072 16.678ZM87.7675 23.8069C87.0068 25.9802 83.9196 26.8774 80.8723 25.8107C77.825 24.7438 75.9713 22.1173 76.732 19.944C77.4928 17.7707 80.5799 16.8735 83.6272 17.9403C86.6745 19.007 88.5283 21.6336 87.7675 23.8069ZM79.8775 30.8709C80.5399 28.9783 83.2282 28.1969 85.8819 29.1259C88.5356 30.0549 90.1498 32.3422 89.4873 34.2347C88.8248 36.1273 86.1365 36.9086 83.4827 35.9797C80.8291 35.0508 79.2149 32.7636 79.8775 30.8709ZM96.0811 14.3079C94.266 12.1608 94.0358 9.37081 95.5671 8.0762C97.0984 6.78159 99.8114 7.47265 101.627 9.61976C103.442 11.7668 103.672 14.5569 102.14 15.8515C100.609 17.1461 97.8964 16.455 96.0811 14.3079Z" fill="#E4F1FF"/>
<path d="M65.6061 103.87C69.3857 106.381 72.109 105.321 73.4388 103.12C74.7693 100.92 74.8011 98.7751 75.8346 97.2735L75.9113 97.2357C76.9448 95.7342 78.9716 94.9622 80.5515 92.9339C82.1315 90.9056 82.2183 88.0301 78.5226 85.3965C75.0067 83.1571 72.9549 85.5977 67.3685 85.0342C62.4493 84.5378 61.1353 87.0653 61.1353 87.0653L61.0931 87.1267C61.0931 87.1267 59.203 89.2872 61.4214 93.6742C63.9553 98.6844 62.2588 101.385 65.6061 103.87ZM62.1941 82.2298C60.7632 84.0047 57.5856 83.817 55.0968 81.8104C52.608 79.8039 51.7504 76.7384 53.1813 74.9635C54.6123 73.1887 57.7899 73.3764 60.2787 75.3829C62.7675 77.3894 63.6251 80.4549 62.1941 82.2298ZM57.3545 89.3586C56.5937 91.532 53.5066 92.4292 50.4592 91.3624C47.4119 90.2956 45.5582 87.669 46.3189 85.4958C47.0797 83.3224 50.1668 82.4252 53.2141 83.4921C56.2614 84.5588 58.1152 87.1853 57.3545 89.3586ZM49.4644 96.4226C50.1268 94.5301 52.8151 93.7487 55.4688 94.6777C58.1225 95.6067 59.7367 97.8939 59.0742 99.7865C58.4117 101.679 55.7234 102.46 53.0697 101.531C50.416 100.603 48.8018 98.3153 49.4644 96.4226ZM65.668 79.8597C63.8529 77.7126 63.6228 74.9226 65.154 73.628C66.6853 72.3334 69.3983 73.0244 71.2134 75.1715C73.0285 77.3186 73.2587 80.1087 71.7274 81.4033C70.1962 82.6979 67.4833 82.0067 65.668 79.8597Z" fill="#E4F1FF"/>
<path d="M139.417 98.3971C143.196 100.909 145.92 99.8479 147.249 97.6476C148.58 95.4476 148.612 93.3024 149.645 91.8009L149.722 91.763C150.755 90.2615 152.782 89.4895 154.362 87.4613C155.942 85.4329 156.029 82.5574 152.333 79.9238C148.817 77.6844 146.765 80.125 141.179 79.5615C136.26 79.0652 134.946 81.5926 134.946 81.5926L134.904 81.654C134.904 81.654 133.014 83.8146 135.232 88.2016C137.766 93.2117 136.069 95.9125 139.417 98.3971ZM136.005 76.7571C134.574 78.532 131.396 78.3443 128.907 76.3378C126.419 74.3313 125.561 71.2657 126.992 69.4909C128.423 67.716 131.6 67.9038 134.089 69.9103C136.578 71.9168 137.436 74.9822 136.005 76.7571ZM131.165 83.886C130.404 86.0593 127.317 86.9565 124.27 85.8898C121.222 84.823 119.369 82.1964 120.129 80.0231C120.89 77.8498 123.977 76.9526 127.025 78.0194C130.072 79.0861 131.926 81.7127 131.165 83.886ZM123.275 90.95C123.937 89.0574 126.626 88.276 129.279 89.205C131.933 90.134 133.547 92.4213 132.885 94.3138C132.222 96.2064 129.534 96.9877 126.88 96.0588C124.227 95.1299 122.612 92.8427 123.275 90.95ZM139.479 74.387C137.663 72.2399 137.433 69.4499 138.965 68.1553C140.496 66.8607 143.209 67.5518 145.024 69.6989C146.839 71.8459 147.069 74.636 145.538 75.9306C144.007 77.2252 141.294 76.5341 139.479 74.387Z" fill="#E4F1FF"/>
<path d="M99.4889 163.455C102.294 167.022 105.213 166.865 107.164 165.191C109.115 163.517 109.815 161.489 111.266 160.386L111.351 160.374C112.802 159.27 114.968 159.17 117.103 157.737C119.238 156.304 120.219 153.6 117.531 149.943C114.891 146.717 112.179 148.395 107.049 146.114C102.531 144.105 100.493 146.095 100.493 146.095L100.434 146.14C100.434 146.14 97.9632 147.602 98.6996 152.463C99.541 158.014 97.0856 160.049 99.4889 163.455ZM103.01 141.833C101.096 143.072 98.1361 141.9 96.3989 139.217C94.6618 136.533 94.805 133.353 96.7189 132.114C98.6328 130.875 101.593 132.046 103.33 134.73C105.067 137.414 104.924 140.594 103.01 141.833ZM96.1849 147.092C94.7831 148.919 91.5702 148.807 89.0088 146.841C86.4474 144.875 85.5073 141.801 86.909 139.974C88.3108 138.148 91.5237 138.26 94.0851 140.226C96.6465 142.191 97.5867 145.266 96.1849 147.092ZM86.4825 151.337C87.7031 149.746 90.501 149.844 92.7315 151.556C94.9621 153.267 95.7807 155.945 94.56 157.535C93.3392 159.126 90.5414 159.028 88.3109 157.317C86.0804 155.605 85.2617 152.928 86.4825 151.337ZM107.05 140.667C105.997 138.06 106.65 135.338 108.509 134.587C110.369 133.835 112.73 135.34 113.783 137.946C114.836 140.553 114.183 143.275 112.324 144.027C110.465 144.778 108.104 143.274 107.05 140.667Z" fill="#E4F1FF"/>
<path d="M148.723 179.637C149.095 184.16 151.616 185.639 154.167 185.319C156.718 184.999 158.421 183.694 160.24 183.574L160.317 183.61C162.136 183.49 163.998 184.602 166.569 184.584C169.14 184.566 171.45 182.852 171.225 178.319C170.803 174.172 167.616 174.075 164.595 169.343C161.934 165.175 159.136 165.711 159.136 165.711L159.062 165.716C159.062 165.716 156.195 165.573 154.128 170.033C151.768 175.127 148.597 175.471 148.723 179.637ZM163.587 163.544C161.307 163.522 159.485 160.912 159.516 157.716C159.547 154.519 161.421 151.945 163.701 151.968C165.98 151.99 167.803 154.6 167.772 157.797C167.74 160.993 165.867 163.567 163.587 163.544ZM154.993 164.167C152.816 164.917 150.198 163.051 149.146 159.999C148.094 156.946 149.005 153.863 151.182 153.113C153.359 152.362 155.977 154.228 157.029 157.281C158.082 160.333 157.17 163.416 154.993 164.167ZM144.559 162.355C146.454 161.702 148.734 163.327 149.651 165.985C150.567 168.643 149.773 171.327 147.877 171.981C145.982 172.634 143.702 171.009 142.786 168.351C141.869 165.693 142.663 163.009 144.559 162.355ZM167.6 164.801C168.16 162.045 170.206 160.135 172.171 160.534C174.136 160.933 175.276 163.49 174.717 166.245C174.157 169 172.111 170.911 170.146 170.512C168.181 170.113 167.041 167.556 167.6 164.801Z" fill="#E4F1FF"/>
</svg>
