<svg width="201" height="150" viewBox="0 0 201 150" fill="none" xmlns="http://www.w3.org/2000/svg">
<path d="M25.0168 39.3961C28.7963 41.9078 31.5196 40.8469 32.8495 38.6466C34.1799 36.4466 34.2118 34.3014 35.2453 32.7999L35.322 32.762C36.3555 31.2605 38.3822 30.4885 39.9622 28.4603C41.5422 26.432 41.6289 23.5564 37.9332 20.9229C34.4173 18.6834 32.3655 21.124 26.7791 20.5605C21.8599 20.0642 20.546 22.5917 20.546 22.5917L20.5037 22.6531C20.5037 22.6531 18.6137 24.8136 20.832 29.2006C23.3659 34.2107 21.6695 36.9115 25.0168 39.3961ZM21.6048 17.7562C20.1739 19.531 16.9963 19.3433 14.5074 17.3368C12.0186 15.3303 11.161 12.2648 12.592 10.4899C14.0229 8.71506 17.2005 8.90279 19.6893 10.9093C22.1781 12.9158 23.0357 15.9813 21.6048 17.7562ZM16.7651 24.885C16.0043 27.0583 12.9172 27.9555 9.86984 26.8888C6.82253 25.822 4.96885 23.1954 5.72958 21.0221C6.49034 18.8488 9.57748 17.9516 12.6248 19.0184C15.6721 20.0851 17.5259 22.7117 16.7651 24.885ZM8.87502 31.949C9.53743 30.0564 12.2258 29.2751 14.8795 30.204C17.5332 31.133 19.1473 33.4203 18.4849 35.3128C17.8223 37.2054 15.1341 37.9867 12.4803 37.0578C9.82668 36.129 8.21246 33.8417 8.87502 31.949ZM25.0787 15.386C23.2636 13.239 23.0334 10.4489 24.5647 9.15432C26.096 7.85972 28.8089 8.55078 30.6241 10.6979C32.4392 12.8449 32.6693 15.635 31.138 16.9296C29.6068 18.2242 26.8939 17.5331 25.0787 15.386Z" fill="#DFE8FA"/>
<path d="M79.0168 37.3961C82.7963 39.9078 85.5196 38.8469 86.8495 36.6466C88.1799 34.4466 88.2118 32.3014 89.2453 30.7999L89.322 30.762C90.3555 29.2605 92.3822 28.4885 93.9622 26.4603C95.5422 24.432 95.6289 21.5564 91.9332 18.9229C88.4173 16.6834 86.3655 19.124 80.7791 18.5605C75.8599 18.0642 74.546 20.5917 74.546 20.5917L74.5037 20.6531C74.5037 20.6531 72.6137 22.8136 74.832 27.2006C77.3659 32.2107 75.6695 34.9115 79.0168 37.3961ZM75.6048 15.7562C74.1739 17.531 70.9963 17.3433 68.5074 15.3368C66.0186 13.3303 65.161 10.2648 66.592 8.48991C68.0229 6.71506 71.2005 6.90279 73.6893 8.9093C76.1781 10.9158 77.0357 13.9813 75.6048 15.7562ZM70.7651 22.885C70.0043 25.0583 66.9172 25.9555 63.8698 24.8888C60.8225 23.822 58.9689 21.1954 59.7296 19.0221C60.4903 16.8488 63.5775 15.9516 66.6248 17.0184C69.6721 18.0851 71.5259 20.7117 70.7651 22.885ZM62.875 29.949C63.5374 28.0564 66.2258 27.2751 68.8795 28.204C71.5332 29.133 73.1473 31.4203 72.4849 33.3128C71.8223 35.2054 69.1341 35.9867 66.4803 35.0578C63.8267 34.129 62.2125 31.8417 62.875 29.949ZM79.0787 13.386C77.2636 11.239 77.0334 8.44893 78.5647 7.15432C80.096 5.85972 82.8089 6.55078 84.6241 8.69789C86.4392 10.8449 86.6693 13.635 85.138 14.9296C83.6068 16.2242 80.8939 15.5331 79.0787 13.386Z" fill="#DFE8FA"/>
<path d="M52.0168 96.3961C55.7963 98.9078 58.5196 97.8469 59.8495 95.6466C61.1799 93.4466 61.2118 91.3014 62.2453 89.7999L62.322 89.762C63.3555 88.2605 65.3822 87.4885 66.9622 85.4603C68.5422 83.432 68.6289 80.5564 64.9332 77.9229C61.4173 75.6834 59.3655 78.124 53.7791 77.5605C48.8599 77.0642 47.546 79.5917 47.546 79.5917L47.5037 79.6531C47.5037 79.6531 45.6137 81.8136 47.832 86.2006C50.3659 91.2107 48.6695 93.9115 52.0168 96.3961ZM48.6048 74.7562C47.1739 76.531 43.9963 76.3433 41.5074 74.3368C39.0186 72.3303 38.161 69.2648 39.592 67.4899C41.0229 65.7151 44.2005 65.9028 46.6893 67.9093C49.1781 69.9158 50.0357 72.9813 48.6048 74.7562ZM43.7651 81.885C43.0043 84.0583 39.9172 84.9555 36.8698 83.8888C33.8225 82.822 31.9689 80.1954 32.7296 78.0221C33.4903 75.8488 36.5775 74.9516 39.6248 76.0184C42.6721 77.0851 44.5259 79.7117 43.7651 81.885ZM35.875 88.949C36.5374 87.0564 39.2258 86.2751 41.8795 87.204C44.5332 88.133 46.1473 90.4203 45.4849 92.3128C44.8223 94.2054 42.1341 94.9867 39.4803 94.0578C36.8267 93.129 35.2125 90.8417 35.875 88.949ZM52.0787 72.386C50.2636 70.239 50.0334 67.4489 51.5647 66.1543C53.096 64.8597 55.8089 65.5508 57.6241 67.6979C59.4392 69.8449 59.6693 72.635 58.138 73.9296C56.6068 75.2242 53.8939 74.5331 52.0787 72.386Z" fill="#DFE8FA"/>
<path d="M132.017 77.3961C135.796 79.9078 138.52 78.8469 139.849 76.6466C141.18 74.4466 141.212 72.3014 142.245 70.7999L142.322 70.762C143.355 69.2605 145.382 68.4885 146.962 66.4603C148.542 64.432 148.629 61.5564 144.933 58.9229C141.417 56.6834 139.366 59.124 133.779 58.5605C128.86 58.0642 127.546 60.5917 127.546 60.5917L127.504 60.6531C127.504 60.6531 125.614 62.8136 127.832 67.2006C130.366 72.2107 128.669 74.9115 132.017 77.3961ZM128.605 55.7562C127.174 57.531 123.996 57.3433 121.507 55.3368C119.019 53.3303 118.161 50.2648 119.592 48.4899C121.023 46.7151 124.201 46.9028 126.689 48.9093C129.178 50.9158 130.036 53.9813 128.605 55.7562ZM123.765 62.885C123.004 65.0583 119.917 65.9555 116.87 64.8888C113.823 63.822 111.969 61.1954 112.73 59.0221C113.49 56.8488 116.577 55.9516 119.625 57.0184C122.672 58.0851 124.526 60.7117 123.765 62.885ZM115.875 69.949C116.537 68.0564 119.226 67.2751 121.879 68.204C124.533 69.133 126.147 71.4203 125.485 73.3128C124.822 75.2054 122.134 75.9867 119.48 75.0578C116.827 74.129 115.212 71.8417 115.875 69.949ZM132.079 53.386C130.264 51.239 130.033 48.4489 131.565 47.1543C133.096 45.8597 135.809 46.5508 137.624 48.6979C139.439 50.8449 139.669 53.635 138.138 54.9296C136.607 56.2242 133.894 55.5331 132.079 53.386Z" fill="#DFE8FA"/>
<path d="M112.017 141.396C115.796 143.908 118.52 142.847 119.849 140.647C121.18 138.447 121.212 136.301 122.245 134.8L122.322 134.762C123.355 133.261 125.382 132.489 126.962 130.46C128.542 128.432 128.629 125.556 124.933 122.923C121.417 120.683 119.366 123.124 113.779 122.561C108.86 122.064 107.546 124.592 107.546 124.592L107.504 124.653C107.504 124.653 105.614 126.814 107.832 131.201C110.366 136.211 108.669 138.911 112.017 141.396ZM108.605 119.756C107.174 121.531 103.996 121.343 101.507 119.337C99.0186 117.33 98.161 114.265 99.592 112.49C101.023 110.715 104.201 110.903 106.689 112.909C109.178 114.916 110.036 117.981 108.605 119.756ZM103.765 126.885C103.004 129.058 99.9172 129.956 96.8698 128.889C93.8225 127.822 91.9689 125.195 92.7296 123.022C93.4903 120.849 96.5775 119.952 99.6248 121.018C102.672 122.085 104.526 124.712 103.765 126.885ZM95.875 133.949C96.5374 132.056 99.2258 131.275 101.879 132.204C104.533 133.133 106.147 135.42 105.485 137.313C104.822 139.205 102.134 139.987 99.4803 139.058C96.8267 138.129 95.2125 135.842 95.875 133.949ZM112.079 117.386C110.264 115.239 110.033 112.449 111.565 111.154C113.096 109.86 115.809 110.551 117.624 112.698C119.439 114.845 119.669 117.635 118.138 118.93C116.607 120.224 113.894 119.533 112.079 117.386Z" fill="#DFE8FA"/>
<path d="M180.017 132.396C183.796 134.908 186.52 133.847 187.849 131.647C189.18 129.447 189.212 127.301 190.245 125.8L190.322 125.762C191.355 124.261 193.382 123.489 194.962 121.46C196.542 119.432 196.629 116.556 192.933 113.923C189.417 111.683 187.366 114.124 181.779 113.561C176.86 113.064 175.546 115.592 175.546 115.592L175.504 115.653C175.504 115.653 173.614 117.814 175.832 122.201C178.366 127.211 176.669 129.911 180.017 132.396ZM176.605 110.756C175.174 112.531 171.996 112.343 169.507 110.337C167.019 108.33 166.161 105.265 167.592 103.49C169.023 101.715 172.201 101.903 174.689 103.909C177.178 105.916 178.036 108.981 176.605 110.756ZM171.765 117.885C171.004 120.058 167.917 120.956 164.87 119.889C161.823 118.822 159.969 116.195 160.73 114.022C161.49 111.849 164.577 110.952 167.625 112.018C170.672 113.085 172.526 115.712 171.765 117.885ZM163.875 124.949C164.537 123.056 167.226 122.275 169.879 123.204C172.533 124.133 174.147 126.42 173.485 128.313C172.822 130.205 170.134 130.987 167.48 130.058C164.827 129.129 163.212 126.842 163.875 124.949ZM180.079 108.386C178.264 106.239 178.033 103.449 179.565 102.154C181.096 100.86 183.809 101.551 185.624 103.698C187.439 105.845 187.669 108.635 186.138 109.93C184.607 111.224 181.894 110.533 180.079 108.386Z" fill="#DFE8FA"/>
</svg>
