<svg width="197" height="209" viewBox="0 0 197 209" fill="none" xmlns="http://www.w3.org/2000/svg">
<path d="M168.981 41.8169C164.755 44.6255 161.709 43.4392 160.222 40.9788C158.735 38.5187 158.699 36.1199 157.543 34.4409L157.457 34.3986C156.302 32.7196 154.035 31.8563 152.269 29.5883C150.502 27.3202 150.405 24.1047 154.537 21.1598C158.469 18.6557 160.763 21.3848 167.01 20.7547C172.511 20.1997 173.98 23.0259 173.98 23.0259L174.027 23.0946C174.027 23.0946 176.141 25.5105 173.66 30.4161C170.827 36.0185 172.724 39.0385 168.981 41.8169ZM172.796 17.6188C174.396 19.6034 177.95 19.3936 180.733 17.1498C183.516 14.9061 184.475 11.4782 182.874 9.49355C181.274 7.50888 177.721 7.7188 174.938 9.96251C172.155 12.2062 171.196 15.6341 172.796 17.6188ZM178.208 25.5904C179.059 28.0206 182.511 29.0238 185.918 27.831C189.326 26.6381 191.399 23.701 190.548 21.2708C189.697 18.8406 186.245 17.8373 182.838 19.0302C179.43 20.223 177.357 23.1601 178.208 25.5904ZM187.031 33.4894C186.29 31.3731 183.284 30.4994 180.317 31.5382C177.349 32.577 175.544 35.1346 176.285 37.2509C177.026 39.3672 180.032 40.2409 182.999 39.2022C185.967 38.1635 187.772 35.6058 187.031 33.4894ZM168.912 14.9685C170.941 12.5676 171.199 9.44772 169.486 8.00007C167.774 6.55242 164.74 7.32518 162.711 9.7261C160.681 12.127 160.424 15.2469 162.136 16.6945C163.848 18.1422 166.882 17.3694 168.912 14.9685Z" fill="#E4F1FF"/>
<path d="M89.5853 42.8472C85.359 45.6558 82.3138 44.4695 80.8267 42.009C79.339 39.549 79.3034 37.1502 78.1477 35.4712L78.0619 35.4288C76.9063 33.7498 74.6399 32.8866 72.8732 30.6186C71.1064 28.3505 71.0094 25.135 75.142 22.1901C79.0735 19.6859 81.3679 22.415 87.6147 21.7849C93.1154 21.2299 94.5847 24.0562 94.5847 24.0562L94.6319 24.1248C94.6319 24.1248 96.7454 26.5408 94.2648 31.4464C91.4314 37.0488 93.3284 40.0688 89.5853 42.8472ZM93.4007 18.6491C95.0008 20.6337 98.554 20.4238 101.337 18.1801C104.12 15.9364 105.079 12.5085 103.479 10.5238C101.879 8.53916 98.3256 8.74908 95.5426 10.9928C92.7596 13.2365 91.8006 16.6643 93.4007 18.6491ZM98.8125 26.6206C99.6632 29.0509 103.115 30.0541 106.523 28.8613C109.93 27.6684 112.003 24.7313 111.153 22.3011C110.302 19.8709 106.85 18.8676 103.442 20.0605C100.035 21.2533 97.9618 24.1904 98.8125 26.6206ZM107.635 34.5197C106.895 32.4034 103.888 31.5297 100.921 32.5685C97.9536 33.6073 96.1487 36.1649 96.8895 38.2812C97.6303 40.3975 100.636 41.2712 103.604 40.2324C106.571 39.1938 108.376 36.6361 107.635 34.5197ZM89.5161 15.9987C91.5458 13.5978 91.8032 10.478 90.0909 9.03035C88.3786 7.5827 85.3449 8.35545 83.3152 10.7564C81.2855 13.1573 81.0282 16.2772 82.7405 17.7248C84.4527 19.1724 87.4863 18.3996 89.5161 15.9987Z" fill="#E4F1FF"/>
<path d="M123.596 116.149C119.37 118.958 116.325 117.771 114.837 115.311C113.35 112.851 113.314 110.452 112.158 108.773L112.073 108.731C110.917 107.052 108.651 106.188 106.884 103.92C105.117 101.652 105.02 98.4367 109.153 95.4919C113.084 92.9877 115.379 95.7168 121.625 95.0867C127.126 94.5317 128.595 97.3579 128.595 97.3579L128.643 97.4266C128.643 97.4266 130.756 99.8425 128.276 104.748C125.442 110.351 127.339 113.371 123.596 116.149ZM127.411 91.9508C129.012 93.9355 132.565 93.7256 135.348 91.4819C138.131 89.2381 139.09 85.8102 137.49 83.8256C135.89 81.8409 132.336 82.0508 129.553 84.2945C126.77 86.5382 125.811 89.9661 127.411 91.9508ZM132.823 99.9224C133.674 102.353 137.126 103.356 140.534 102.163C143.941 100.97 146.014 98.033 145.163 95.6028C144.313 93.1726 140.861 92.1694 137.453 93.3623C134.045 94.5551 131.973 97.4922 132.823 99.9224ZM141.646 107.821C140.905 105.705 137.899 104.831 134.932 105.87C131.964 106.909 130.159 109.467 130.9 111.583C131.641 113.699 134.647 114.573 137.615 113.534C140.582 112.496 142.387 109.938 141.646 107.821ZM123.527 89.3005C125.557 86.8996 125.814 83.7798 124.102 82.3321C122.389 80.8845 119.356 81.6572 117.326 84.0581C115.296 86.459 115.039 89.5789 116.751 91.0266C118.463 92.4742 121.497 91.7014 123.527 89.3005Z" fill="#E4F1FF"/>
<path d="M41.06 110.029C36.8336 112.837 33.7884 111.651 32.3013 109.191C30.8136 106.731 30.778 104.332 29.6223 102.653L29.5366 102.61C28.3809 100.931 26.1145 100.068 24.3478 97.8002C22.581 95.5321 22.4841 92.3166 26.6166 89.3717C30.5481 86.8676 32.8425 89.5967 39.0893 88.9666C44.59 88.4116 46.0593 91.2378 46.0593 91.2378L46.1065 91.3065C46.1065 91.3065 48.22 93.7224 45.7394 98.628C42.906 104.23 44.803 107.25 41.06 110.029ZM44.8753 85.8307C46.4754 87.8154 50.0286 87.6055 52.8117 85.3617C55.5947 83.118 56.5537 79.6901 54.9536 77.7055C53.3535 75.7208 49.8002 75.9307 47.0172 78.1744C44.2342 80.4181 43.2752 83.846 44.8753 85.8307ZM50.2871 93.8023C51.1378 96.2325 54.5899 97.2358 57.9975 96.0429C61.405 94.85 63.4779 91.9129 62.6272 89.4827C61.7765 87.0525 58.3244 86.0492 54.9169 87.2422C51.5093 88.435 49.4364 91.372 50.2871 93.8023ZM59.1099 101.701C58.3692 99.585 55.3631 98.7113 52.3957 99.7501C49.4283 100.789 47.6233 103.347 48.3641 105.463C49.1049 107.579 52.111 108.453 55.0784 107.414C58.0458 106.375 59.8508 103.818 59.1099 101.701ZM40.9908 83.1804C43.0204 80.7795 43.2778 77.6596 41.5655 76.212C39.8532 74.7643 36.8195 75.5371 34.7898 77.938C32.7601 80.3389 32.5028 83.4588 34.2151 84.9065C35.9273 86.3541 38.9609 85.5813 40.9908 83.1804Z" fill="#E4F1FF"/>
<path d="M85.707 182.778C82.57 186.767 79.3065 186.591 77.1251 184.719C74.9432 182.847 74.1597 180.579 72.5373 179.345L72.4426 179.332C70.8201 178.098 68.3975 177.986 66.0105 176.384C63.6235 174.782 62.5266 171.757 65.532 167.669C68.4841 164.061 71.5164 165.937 77.2535 163.386C82.3053 161.14 84.5842 163.366 84.5842 163.366L84.6505 163.416C84.6505 163.416 87.4131 165.051 86.5897 170.486C85.6487 176.693 88.3944 178.969 85.707 182.778ZM81.7699 158.599C83.91 159.985 87.2197 158.675 89.1622 155.674C91.1048 152.673 90.9446 149.117 88.8044 147.732C86.6643 146.347 83.3546 147.656 81.412 150.657C79.4695 153.658 79.6297 157.214 81.7699 158.599ZM89.4016 164.481C90.9691 166.523 94.5618 166.398 97.4261 164.2C100.29 162.002 101.341 158.564 99.774 156.521C98.2065 154.479 94.6138 154.604 91.7496 156.802C88.8855 159 87.8341 162.438 89.4016 164.481ZM100.251 169.227C98.886 167.448 95.7574 167.558 93.2632 169.472C90.769 171.386 89.8536 174.379 91.2186 176.158C92.5836 177.937 95.7122 177.828 98.2065 175.914C100.701 174 101.616 171.006 100.251 169.227ZM77.2516 157.296C78.4294 154.381 77.699 151.337 75.6201 150.497C73.5412 149.657 70.9009 151.339 69.7231 154.254C68.5453 157.168 69.2757 160.213 71.3547 161.053C73.4335 161.893 76.0737 160.211 77.2516 157.296Z" fill="#E4F1FF"/>
<path d="M30.6512 200.873C30.2348 205.931 27.416 207.585 24.5636 207.226C21.711 206.868 19.8067 205.409 17.7729 205.275L17.6865 205.316C15.6526 205.182 13.5702 206.425 10.6953 206.405C7.82038 206.385 5.23732 204.468 5.48872 199.399C5.96132 194.762 9.52506 194.654 12.9035 189.362C15.8783 184.702 19.0067 185.301 19.0067 185.301L19.0899 185.306C19.0899 185.306 22.2958 185.146 24.607 190.134C27.2462 195.83 30.7918 196.214 30.6512 200.873ZM14.0301 182.878C16.5794 182.853 18.6176 179.935 18.5825 176.36C18.5474 172.785 16.4523 169.908 13.903 169.933C11.3538 169.958 9.31562 172.876 9.35072 176.451C9.38582 180.025 11.4808 182.903 14.0301 182.878ZM23.64 183.574C26.0742 184.413 29.0016 182.326 30.1782 178.913C31.3548 175.5 30.3354 172.052 27.9012 171.213C25.467 170.374 22.5396 172.461 21.363 175.874C20.1864 179.287 21.2058 182.734 23.64 183.574ZM35.3077 181.548C33.1879 180.817 30.6387 182.634 29.6141 185.607C28.5894 188.579 29.4772 191.581 31.5969 192.312C33.7168 193.042 36.2659 191.225 37.2906 188.253C38.3153 185.281 37.4276 182.279 35.3077 181.548ZM9.54231 184.283C8.91685 181.202 6.62849 179.065 4.43105 179.511C2.23361 179.957 0.959177 182.817 1.58463 185.898C2.2101 188.979 4.49853 191.115 6.69597 190.669C8.89333 190.223 10.1677 187.364 9.54231 184.283Z" fill="#E4F1FF"/>
</svg>
