<svg width="68" height="136" viewBox="0 0 68 136" fill="none" xmlns="http://www.w3.org/2000/svg">
<path d="M29.9693 59.3588C29.8054 69.4718 24.4482 73.1309 18.7619 72.7918C13.0755 72.4543 9.12042 69.8019 5.08181 69.8019L4.91634 69.8948C0.877728 69.8948 -3.07718 72.6402 -8.7636 72.9778C-14.4502 73.3154 -19.8071 69.8408 -19.9709 59.7278C-19.6413 50.4429 -12.6096 49.7602 -6.62035 38.7918C-1.34665 29.1334 4.91666 29.915 4.91666 29.915H5.08181C5.08181 29.915 11.3992 29.1753 16.619 38.7918C22.5796 49.7752 29.6396 50.0736 29.9693 59.3588ZM-5.23839 25.7483C-0.201672 25.3641 3.44748 19.2931 2.91195 12.1881C2.37642 5.08329 -2.14097 -0.36507 -7.17768 0.0191331C-12.2144 0.403336 -15.8635 6.47445 -15.328 13.5793C-14.7925 20.6841 -10.2753 26.1325 -5.23839 25.7483ZM13.8517 25.8717C18.7738 27.2214 24.2893 22.6874 26.1705 15.7447C28.0516 8.80192 25.5866 2.07951 20.6646 0.729795C15.7426 -0.619914 10.2271 3.91406 8.34598 10.8568C6.46473 17.7994 8.92962 24.522 13.8517 25.8717ZM36.6554 20.3128C32.3692 19.1373 27.5661 23.0855 25.9279 29.1314C24.2897 35.1774 26.4364 41.0312 30.7225 42.2066C35.0089 43.3819 39.8118 39.4338 41.4501 33.3878C43.0885 27.3422 40.9419 21.4882 36.6554 20.3128ZM-13.9279 29.131C-15.5663 23.0853 -20.3691 19.137 -24.6554 20.3124C-28.9417 21.4877 -31.0885 27.3417 -29.4502 33.3875C-27.8118 39.4331 -23.0089 43.3815 -18.7225 42.2061C-14.4364 41.0309 -12.2898 35.1769 -13.9279 29.131Z" fill="#86ABD1"/>
<path d="M59.9795 126.844C59.8703 133.632 56.2988 136.088 52.5079 135.86C48.717 135.634 46.0803 133.853 43.3879 133.853L43.2776 133.916C40.5852 133.916 37.9485 135.759 34.1576 135.985C30.3666 136.212 26.7953 133.879 26.686 127.091C26.9058 120.859 31.5936 120.401 35.5864 113.038C39.1022 106.555 43.2778 107.08 43.2778 107.08H43.3879C43.3879 107.08 47.5994 106.583 51.0793 113.038C55.053 120.411 59.7597 120.611 59.9795 126.844ZM36.5077 104.283C39.8656 104.025 42.2983 99.9502 41.9413 95.1811C41.5843 90.4121 38.5727 86.755 35.2149 87.0128C31.8571 87.2707 29.4243 91.3459 29.7813 96.1149C30.1383 100.884 33.1498 104.541 36.5077 104.283ZM49.2345 104.366C52.5158 105.272 56.1928 102.229 57.447 97.5683C58.7011 92.9081 57.0577 88.3958 53.7764 87.4899C50.495 86.5839 46.8181 89.6272 45.564 94.2874C44.3098 98.9475 45.9531 103.46 49.2345 104.366ZM64.4369 100.635C61.5795 99.8456 58.3774 102.496 57.2853 106.554C56.1932 110.612 57.6242 114.542 60.4817 115.33C63.3392 116.119 66.5412 113.469 67.6334 109.411C68.7257 105.353 67.2946 101.424 64.4369 100.635ZM30.7147 106.554C29.6225 102.496 26.4206 99.8454 23.5631 100.634C20.7055 101.423 19.2743 105.353 20.3666 109.411C21.4588 113.469 24.6607 116.119 27.5183 115.33C30.3758 114.541 31.8068 110.612 30.7147 106.554Z" fill="#86ABD1"/>
</svg>
