<svg width="76" height="70" viewBox="0 0 76 70" fill="none" xmlns="http://www.w3.org/2000/svg">
<path d="M76 1.33335C76 0.552399 75.4226 0 74.7119 0H1.28814C0.576768 0 0 0.552399 0 1.33335V68.6666C0 69.4476 0.576768 70 1.28814 70H74.7119C75.4232 70 76 69.4476 76 68.6666V19.5066C76 19.5018 76 19.4976 76 19.4928C76 19.4879 76 19.4838 76 19.479V1.33335ZM73.4237 67.1717H2.57627V20.8586H73.4237V67.1717ZM73.4237 18.0303H2.57627V2.82828H73.4237V18.0303Z" fill="url(#paint0_linear)"/>
<path d="M19.8552 15.5608C22.4271 15.5608 24.5197 13.1828 24.5197 10.2593C24.5197 7.33576 22.4271 4.95703 19.8552 4.95703C17.284 4.95703 15.1914 7.33576 15.1914 10.2593C15.1914 13.1821 17.284 15.5608 19.8552 15.5608ZM19.8552 7.78527C21.0069 7.78527 21.9434 8.89488 21.9434 10.2593C21.9434 11.623 21.0069 12.7326 19.8552 12.7326C18.7042 12.7326 17.7677 11.623 17.7677 10.2593C17.7677 8.89488 18.7042 7.78527 19.8552 7.78527Z" fill="url(#paint1_linear)"/>
<path d="M30.8266 15.5608C33.3985 15.5608 35.4904 13.1828 35.4904 10.2593C35.4904 7.33576 33.3985 4.95703 30.8266 4.95703C28.2547 4.95703 26.1621 7.33576 26.1621 10.2593C26.1621 13.1821 28.2547 15.5608 30.8266 15.5608ZM30.8266 7.78527C31.9776 7.78527 32.9141 8.89488 32.9141 10.2593C32.9141 11.623 31.9776 12.7326 30.8266 12.7326C29.6749 12.7326 28.7384 11.623 28.7384 10.2593C28.7384 8.89488 29.6756 7.78527 30.8266 7.78527Z" fill="url(#paint2_linear)"/>
<path d="M8.88356 15.5608C11.4554 15.5608 13.5474 13.1828 13.5474 10.2593C13.5474 7.33576 11.4554 4.95703 8.88356 4.95703C6.31169 4.95703 4.21973 7.33576 4.21973 10.2593C4.21973 13.1821 6.31169 15.5608 8.88356 15.5608ZM8.88356 7.78527C10.0346 7.78527 10.9711 8.89488 10.9711 10.2593C10.9711 11.623 10.0346 12.7326 8.88356 12.7326C7.73254 12.7326 6.796 11.623 6.796 10.2593C6.796 8.89488 7.73254 7.78527 8.88356 7.78527Z" fill="url(#paint3_linear)"/>
<path d="M9.33892 63.8127H29.7881C30.4994 63.8127 31.0762 63.1795 31.0762 62.3986V25.4542C31.0762 24.6732 30.4994 24.04 29.7881 24.04H9.33892C8.62755 24.04 8.05078 24.6732 8.05078 25.4542V62.3986C8.05078 63.1795 8.62755 63.8127 9.33892 63.8127ZM11.5818 60.9844L19.483 46.6324L27.3841 60.9844H11.5818ZM28.3389 57.3524L20.9485 43.9264L28.3389 30.4996V57.3524ZM27.3841 26.8683L19.483 41.2203L11.5818 26.8683H27.3841ZM10.6271 30.4996L18.0175 43.9264L10.6271 57.3524V30.4996Z" fill="url(#paint4_linear)"/>
<path d="M38.2823 35.7071H53.8204C54.5318 35.7071 55.1086 35.0739 55.1086 34.293C55.1086 33.5121 54.5318 32.8789 53.8204 32.8789H38.2823C37.5709 32.8789 36.9941 33.5121 36.9941 34.293C36.9941 35.0739 37.5709 35.7071 38.2823 35.7071Z" fill="url(#paint5_linear)"/>
<path fill-rule="evenodd" clip-rule="evenodd" d="M66.7018 44.5451H38.2823C37.5709 44.5451 36.9941 43.9119 36.9941 43.131C36.9941 42.35 37.5709 41.7168 38.2823 41.7168H66.7018C67.4132 41.7168 67.9899 42.35 67.9899 43.131C67.9899 43.9119 67.4132 44.5451 66.7018 44.5451ZM66.7018 53.3832H38.2823C37.5709 53.3832 36.9941 52.75 36.9941 51.9691C36.9941 51.1881 37.5709 50.5549 38.2823 50.5549H66.7018C67.4132 50.5549 67.9899 51.1881 67.9899 51.9691C67.9899 52.75 67.4132 53.3832 66.7018 53.3832Z" fill="url(#paint6_linear)"/>
<defs>
<linearGradient id="paint0_linear" x1="38" y1="0" x2="38" y2="70" gradientUnits="userSpaceOnUse">
<stop stop-color="#63E3CC"/>
<stop offset="1" stop-color="#559AE2"/>
</linearGradient>
<linearGradient id="paint1_linear" x1="19.8555" y1="4.95703" x2="19.8555" y2="15.5608" gradientUnits="userSpaceOnUse">
<stop stop-color="#63E3CC"/>
<stop offset="1" stop-color="#559AE2"/>
</linearGradient>
<linearGradient id="paint2_linear" x1="30.8263" y1="4.95703" x2="30.8263" y2="15.5608" gradientUnits="userSpaceOnUse">
<stop stop-color="#63E3CC"/>
<stop offset="1" stop-color="#559AE2"/>
</linearGradient>
<linearGradient id="paint3_linear" x1="8.88356" y1="4.95703" x2="8.88356" y2="15.5608" gradientUnits="userSpaceOnUse">
<stop stop-color="#63E3CC"/>
<stop offset="1" stop-color="#559AE2"/>
</linearGradient>
<linearGradient id="paint4_linear" x1="19.5635" y1="24.04" x2="19.5635" y2="63.8127" gradientUnits="userSpaceOnUse">
<stop stop-color="#63E3CC"/>
<stop offset="1" stop-color="#559AE2"/>
</linearGradient>
<linearGradient id="paint5_linear" x1="46.0513" y1="32.8789" x2="46.0513" y2="35.7071" gradientUnits="userSpaceOnUse">
<stop stop-color="#63E3CC"/>
<stop offset="1" stop-color="#559AE2"/>
</linearGradient>
<linearGradient id="paint6_linear" x1="52.492" y1="41.7168" x2="52.492" y2="53.3832" gradientUnits="userSpaceOnUse">
<stop stop-color="#63E3CC"/>
<stop offset="1" stop-color="#559AE2"/>
</linearGradient>
</defs>
</svg>
