<svg width="43" height="43" viewBox="0 0 43 43" fill="none" xmlns="http://www.w3.org/2000/svg">
<path d="M21.098 42.196C32.7501 42.196 42.196 32.7501 42.196 21.098C42.196 9.4459 32.7501 0 21.098 0C9.4459 0 0 9.4459 0 21.098C0 32.7501 9.4459 42.196 21.098 42.196Z" fill="#55ACEE"/>
<path d="M34.021 15.1617C33.1169 15.5627 32.1443 15.8338 31.1244 15.9549C32.1658 15.331 32.965 14.3437 33.3422 13.1654C32.3677 13.7435 31.288 14.1628 30.1398 14.3889C29.2199 13.4092 27.9092 12.7969 26.4578 12.7969C23.6732 12.7969 21.4148 15.0553 21.4148 17.8399C21.4148 18.2352 21.4596 18.6199 21.5461 18.9892C17.3549 18.779 13.6387 16.7714 11.1513 13.7194C10.7173 14.4641 10.4683 15.331 10.4683 16.255C10.4683 18.0042 11.3592 19.5485 12.7117 20.4526C11.8854 20.4267 11.1073 20.1999 10.4277 19.8211C10.4273 19.8426 10.4273 19.864 10.4273 19.8851C10.4273 22.3285 12.1663 24.3666 14.4729 24.8296C14.0502 24.9454 13.6038 25.0067 13.1446 25.0067C12.8189 25.0067 12.5033 24.9755 12.1957 24.9168C12.8373 26.9199 14.6993 28.378 16.9066 28.419C15.1803 29.7718 13.0062 30.5777 10.6428 30.5777C10.2366 30.5777 9.8342 30.5541 9.44043 30.507C11.671 31.9384 14.3225 32.773 17.1702 32.773C26.4462 32.773 31.5189 25.0887 31.5189 18.424C31.5189 18.2055 31.514 17.9877 31.5042 17.7718C32.4903 17.061 33.3452 16.1731 34.021 15.1617Z" fill="#F1F2F2"/>
</svg>
