<svg width="43" height="43" viewBox="0 0 43 43" fill="none" xmlns="http://www.w3.org/2000/svg">
<path d="M21.098 42.196C32.7501 42.196 42.196 32.7501 42.196 21.098C42.196 9.4459 32.7501 0 21.098 0C9.4459 0 0 9.4459 0 21.098C0 32.7501 9.4459 42.196 21.098 42.196Z" fill="#4D76A1"/>
<path fill-rule="evenodd" clip-rule="evenodd" d="M20.3007 30.3514H21.9567C21.9567 30.3514 22.4569 30.2965 22.7122 30.0212C22.9473 29.7685 22.9398 29.2939 22.9398 29.2939C22.9398 29.2939 22.9074 27.0719 23.9387 26.7447C24.9552 26.4224 26.2607 28.8922 27.6443 29.8418C28.6906 30.5605 29.4856 30.403 29.4856 30.403L33.1853 30.3514C33.1853 30.3514 35.1206 30.2322 34.203 28.7105C34.1277 28.5861 33.6685 27.5849 31.4522 25.5277C29.1325 23.3745 29.4431 23.7228 32.2375 19.9984C33.9393 17.7302 34.6197 16.3454 34.4072 15.7523C34.2045 15.1874 32.9528 15.3367 32.9528 15.3367L28.7872 15.3627C28.7872 15.3627 28.4785 15.3205 28.2494 15.4574C28.0257 15.5917 27.8816 15.9046 27.8816 15.9046C27.8816 15.9046 27.2223 17.6598 26.343 19.1525C24.4881 22.3023 23.7465 22.4685 23.4434 22.273C22.7382 21.8172 22.9142 20.4418 22.9142 19.4647C22.9142 16.4123 23.3772 15.1396 22.0127 14.8102C21.5599 14.7007 21.2267 14.6285 20.0687 14.6169C18.5824 14.6015 17.3243 14.6214 16.612 14.9704C16.1381 15.2024 15.7726 15.7196 15.9952 15.7493C16.2705 15.7861 16.8941 15.9174 17.2247 16.3676C17.6515 16.9483 17.6365 18.2526 17.6365 18.2526C17.6365 18.2526 17.8817 21.8457 17.0637 22.2922C16.5022 22.5983 15.732 21.9732 14.0783 19.1157C13.231 17.6519 12.5912 16.034 12.5912 16.034C12.5912 16.034 12.4679 15.7316 12.2479 15.5699C11.9808 15.3739 11.6077 15.3115 11.6077 15.3115L7.64938 15.3375C7.64938 15.3375 7.05515 15.354 6.83702 15.6124C6.64296 15.8422 6.8216 16.3176 6.8216 16.3176C6.8216 16.3176 9.9206 23.5679 13.4295 27.2216C16.647 30.5714 20.3007 30.3514 20.3007 30.3514Z" fill="white"/>
</svg>
